<svg xmlns="http://www.w3.org/2000/svg" xmlns:xlink="http://www.w3.org/1999/xlink" version="1.1" x="0px" y="0px" viewBox="0 0 100 125" enable-background="new 0 0 100 100" xml:space="preserve"><g><path d="M180.903,111.418c-0.003-0.025-0.021-0.039-0.025-0.064c-0.018-0.1-0.052-0.193-0.101-0.279   c-0.019-0.035-0.029-0.076-0.051-0.105c-0.081-0.115-0.183-0.21-0.306-0.28c-0.007-0.003-0.01-0.01-0.015-0.013   c-0.03-0.018-0.065-0.013-0.095-0.024c-0.076-0.032-0.147-0.067-0.232-0.08l-22.24-3.058c-0.186-0.029-0.376,0.006-0.548,0.086   l-6.156,2.965c-0.03,0.014-0.047,0.039-0.074,0.057c-0.033,0.02-0.068,0.027-0.098,0.051c-0.023,0.017-0.035,0.047-0.058,0.066   c-0.05,0.045-0.091,0.096-0.13,0.15c-0.033,0.05-0.061,0.096-0.085,0.146c-0.028,0.063-0.046,0.125-0.061,0.193   c-0.007,0.035-0.03,0.064-0.032,0.1l-3.282,31.701c-0.052,0.504,0.298,0.963,0.798,1.047l26.972,4.453   c0.052,0.008,0.104,0.014,0.157,0.014c0.008,0,0.015,0,0.025,0c0.034-0.002,0.063-0.018,0.095-0.02   c0.013,0,0.027,0.006,0.039,0.006c0.248,0,0.493-0.098,0.676-0.277l7.633-7.561c0.208-0.205,0.311-0.494,0.279-0.785   L180.903,111.418z M157.863,109.454l18.928,2.599l-3.194,1.631l-18.802-2.75L157.863,109.454z M149.317,142.328l3.087-29.805   l20.433,2.988l1.393,30.932L149.317,142.328z M176.255,145.377l-1.505-30.127l4.394-2.242l2.888,26.645L176.255,145.377z"/><path d="M167.489,116.268c-0.046-0.005-0.141-0.008-0.183-0.008c-1.28,0-2.35,1-2.439,2.274c-0.045,0.647,0.175,1.298,0.604,1.784   c0.101,0.115,0.237,0.181,0.354,0.273c-0.465,2.408-2.191,3.693-4.686,3.394c-1.25-0.138-2.297-0.689-2.949-1.552   c-0.543-0.72-0.766-1.617-0.688-2.611c0.977-0.268,1.739-1.093,1.818-2.143c0.053-0.64-0.151-1.272-0.579-1.771   c-0.427-0.5-1.022-0.806-1.677-0.855l-0.064-0.005h-0.108c-1.28,0-2.353,0.997-2.442,2.272c-0.055,0.619,0.148,1.254,0.567,1.754   c0.168,0.197,0.378,0.338,0.591,0.47c-0.141,1.503,0.204,2.927,1.049,4.044c0.973,1.29,2.49,2.107,4.265,2.307   c0.305,0.033,0.603,0.051,0.896,0.051c3.004,0,5.225-1.84,5.863-4.871c1.109-0.176,1.992-1.064,2.058-2.217   C169.831,117.539,168.821,116.367,167.489,116.268z M156.894,116.771c0.015,0,0.027,0.004,0.043,0.004   c0.397,0.029,0.696,0.382,0.664,0.773c-0.03,0.383-0.347,0.668-0.729,0.668c-0.013,0-0.024,0-0.037,0   c-0.393-0.033-0.695-0.377-0.66-0.777C156.201,117.06,156.519,116.771,156.894,116.771z M167.311,119.419   c-0.018,0-0.036,0-0.057-0.002c-0.397-0.022-0.692-0.37-0.665-0.763c0.027-0.379,0.342-0.67,0.718-0.67   c0.015,0,0.032,0.002,0.05,0.002c0.393,0.031,0.688,0.379,0.66,0.771C167.996,119.129,167.682,119.419,167.311,119.419z"/></g><g><path d="M43.521,63.715c-1.635,0-2.966,1.33-2.966,2.964c0,1.635,1.331,2.965,2.966,2.965c1.635,0,2.964-1.33,2.964-2.965   C46.485,65.045,45.156,63.715,43.521,63.715z M43.521,68.157c-0.815,0-1.479-0.663-1.479-1.479c0-0.814,0.664-1.478,1.479-1.478   c0.814,0,1.477,0.663,1.477,1.478C44.998,67.494,44.335,68.157,43.521,68.157z"/><path d="M58.584,63.716c-1.635,0-2.964,1.33-2.964,2.965c0,1.634,1.329,2.963,2.964,2.963c1.634,0,2.963-1.329,2.963-2.963   C61.547,65.046,60.218,63.716,58.584,63.716z M58.584,68.157c-0.814,0-1.477-0.663-1.477-1.477c0-0.815,0.662-1.479,1.477-1.479   c0.813,0,1.477,0.663,1.477,1.479C60.061,67.494,59.397,68.157,58.584,68.157z"/><path d="M67.527,39.07c-0.141-0.179-0.355-0.284-0.584-0.284L36.94,38.787l-1.086-5.019c-0.074-0.343-0.377-0.587-0.727-0.587   c-0.002,0-0.005,0-0.009,0l-6.645,0.077c-0.41,0.004-0.74,0.342-0.736,0.752c0.006,0.408,0.338,0.736,0.745,0.736   c0.002,0,0.005,0,0.009,0l6.038-0.069l3.106,14.357l2.969,12.744c0.078,0.336,0.378,0.574,0.724,0.574h19.836   c0.411,0,0.744-0.333,0.744-0.743s-0.333-0.743-0.744-0.743H41.92l-1.495-6.417h23.101c0.345,0,0.644-0.235,0.724-0.569   l3.417-14.175C67.72,39.483,67.669,39.25,67.527,39.07z M62.941,52.962H40.132l-2.82-12.687l28.687-0.001L62.941,52.962z"/></g><text x="0" y="115" fill="#000000" font-size="5px" font-weight="bold" font-family="'Helvetica Neue', Helvetica, Arial-Unicode, Arial, Sans-serif">Created by Andrea Harris</text><text x="0" y="120" fill="#000000" font-size="5px" font-weight="bold" font-family="'Helvetica Neue', Helvetica, Arial-Unicode, Arial, Sans-serif">from the Noun Project</text></svg>