<?xml version="1.0" encoding="utf-8"?>
<!-- Generator: Adobe Illustrator 19.0.0, SVG Export Plug-In . SVG Version: 6.00 Build 0)  -->
<svg version="1.1" id="svg2" xmlns:svg="http://www.w3.org/2000/svg"
	 xmlns="http://www.w3.org/2000/svg" xmlns:xlink="http://www.w3.org/1999/xlink" x="0px" y="0px" viewBox="-55 328 500 137"
	 style="enable-background:new -55 328 500 137;" xml:space="preserve">
<style type="text/css">
	.st0{fill:#FFFFFF;}
</style>
<path id="path102" class="st0" d="M90,347.6c0,0,2.7,2.1,2.7,11.6c0,9.4,0,47.1,0,53.5c0,6.4,1.8,8.2,5.5,8.2c3.6,0,17.3,0,17.3,0
	s-3-3.6-3-8.8c0-5.2,0-47.1,0-54.4s-1.2-10.3-5.5-10.3C102.8,347.3,90,347.6,90,347.6"/>
<path id="path104" class="st0" d="M125.2,347.3c0,0,2.7,2.1,2.7,8.2c0,6.1,0,31.6,0,45.3c0,13.7,11.6,22.5,27.1,22.5
	c14,0,19.1-7.3,19.1-7.3s0.9,5.2,5.8,5.2s16.4-0.3,16.4-0.3s-3-4.6-3-9.7c0-5.2,0-63.8,0-63.8h-22.5c0,0,2.7,4,2.7,9.4
	c0,5.5-0.3,31-0.3,37.7c0,6.7-2.4,14.6-13.1,14.6c-10.6,0-12.2-10.6-12.2-14.6s0-36.5,0-40.1c0-3.6-2.1-7.3-4.9-7.3
	S125.2,347.3,125.2,347.3"/>
<path id="path106" class="st0" d="M205.5,347.3c0,0,4,2.7,4,10c0,7.3,0,45.9,0,53.2s-3,10.3-3,10.3h21c0,0-2.7-3.3-2.7-10.3
	c0-7,0-40.7,0-40.7s8.5,17.3,13.7,25.8c5.2,8.5,9.7,9.1,14,9.4c4.3,0.3,6.1-0.9,6.1-0.9s10.3-28.9,15.5-37.1c-0.6,0.6,0,38.3,0,44.7
	c0,6.4-3,9.4-3,9.4h23.1c0,0-3-4.9-3-10c0-5.2,0-48.6,0-54.4c0-5.8,3-9.4,3-9.4s-18.5,0.3-22.8,0.3s-6.4,2.1-8.5,7.9
	c-2.1,5.8-10.6,27.4-10.6,27.4s-10.9-22.5-13.4-28c-2.4-5.5-4.3-7.9-8.8-7.9C225.2,347,205.5,347.3,205.5,347.3"/>
<g id="XMLID_1_">
	<g>
		<path class="st0" d="M342.9,347c12.2,0,21.9,9.1,21.9,23.4c0,23.4-37.4,28.3-37.4,28.3s0,9.7,0,15.5c0,5.8-2.4,6.7-4.9,6.7
			c-2.4,0-18.9,0-18.9,0s3.4-4.3,3.4-9.1c0-4.9,0-51.7,0-56.2c0-4.5-3.4-8.5-3.4-8.5S330.7,347,342.9,347z M346.8,369.1
			c0-7.3-8.5-9.7-10.6-9.7c-2.1,0-8.8,0.3-8.8,0.3v26.8C327.4,386.5,346.8,384.3,346.8,369.1z"/>
	</g>
	<g>
	</g>
</g>
<path id="path110" class="st0" d="M442.3,412.3c0-5.2,0-65,0-65h-23.4c0,0,2.7,5.2,2.7,9.7c0,1.2,0,5.2,0,10.3
	c-9.4,1.1-18.6,5.8-28.6,12.4c0-16.3,0-32.5,0-32.5h-23.4c0,0,2.7,5.2,2.7,9.7c0,3.1,0,23.1,0,37.8c-33.5,25.2-79.8,58.4-166,59.1
	c-111.2,0.9-143.2-60.8-143.2-60.8S79,386.8,79,370.1c0-13.7-10.6-23.1-21-23.1c-10.3,0-32.8,0.6-32.8,0.6l-1.8-19.2
	c0,0-14.6,1.5-39.2,1.5s-37.4-1.2-37.4-1.2l-1.8,22.8c7.3-3,29.5-4.6,29.5-4.6s-0.3,22.5-0.3,41.9c0,19.5-4.9,32.2-4.9,32.2
	l31.9-0.3c0,0-5.2-13.7-5.2-33.1c0-14.6,0-40.7,0-40.7s20.7,1.2,23.7,3c1.9,1.1,3,3,3,5.2c0,2.1,0,52.3,0,56.5
	c0,4.3-2.7,9.4-2.7,9.4l24.6-0.3c0,0-2.4-4-2.4-7.3c0-3.3-0.3-15.5-0.3-15.5l3-0.3c0,0,44.7,66.9,159.9,66.9
	c80.9,0,131.7-28.4,167.7-51.2l0,0c0.6,5,2.5,7.7,5.2,7.7c3.3,0,17.9,0,17.9,0s-2.7-3.6-2.7-8.8c0-1.5,0-7.5,0-15.3
	c9.7-7.4,19.8-13,28.6-16c0,12,0,24.6,0,28.6c0,7.6,2.1,11.5,5.5,11.5s17.9,0,17.9,0S442.3,417.5,442.3,412.3z M42.3,359.7
	c0,0,4.9,0,8.2,0c3.3,0,11.2,2.4,11.2,9.7c0,14.9-19.8,16.7-19.8,16.7L42.3,359.7"/>
</svg>
